<svg xmlns="http://www.w3.org/2000/svg" viewBox="0 0 220 240" role="img" aria-label="soulage">
  <defs>
    <linearGradient id="soulageGrad" x1="0%" y1="0%" x2="0%" y2="100%">
      <stop offset="0%" stop-color="#8aa889"/>
      <stop offset="48%" stop-color="#c89a93"/>
      <stop offset="100%" stop-color="#d8845d"/>
    </linearGradient>
  </defs>
  <g fill="none" stroke="url(#soulageGrad)" stroke-width="2.4" stroke-linecap="round" stroke-linejoin="round">
    <path d="M42 92h136v78c0 10-8 18-18 18H60c-10 0-18-8-18-18V92z"/>
    <path d="M30 92l80-42 80 42"/>
    <path d="M110 50v42"/>
    <path d="M88 112c8-18 18-28 22-40 6 12 10 24 12 40"/>
    <path d="M132 112c-8-18-18-28-22-40-6 12-10 24-12 40"/>
    <path d="M104 126c10 8 18 20 20 34"/>
    <circle cx="146" cy="118" r="5" fill="url(#soulageGrad)" stroke="none"/>
    <path d="M146 123v24"/>
    <path d="M138 139h16"/>
    <path d="M140 147h12"/>
  </g>
  <text x="110" y="214" text-anchor="middle" font-family="'Plus Jakarta Sans', 'Avenir Next', sans-serif" font-size="28" font-weight="600" fill="url(#soulageGrad)" letter-spacing="0.06em">soulage</text>
</svg>
